ffmpeg version 3.4.8-0ubuntu0.2 Copyright (c) 2000-2020 the FFmpeg developers
  built with gcc 7 (Ubuntu 7.5.0-3ubuntu1~18.04)
  configuration: --prefix=/usr --extra-version=0ubuntu0.2 --toolchain=hardened --libdir=/usr/lib/x86_64-linux-gnu --incdir=/usr/include/x86_64-linux-gnu --enable-gpl --disable-stripping --enable-avresample --enable-avisynth --enable-gnutls --enable-ladspa --enable-libass --enable-libbluray --enable-libbs2b --enable-libcaca --enable-libcdio --enable-libflite --enable-libfontconfig --enable-libfreetype --enable-libfribidi --enable-libgme --enable-libgsm --enable-libmp3lame --enable-libmysofa --enable-libopenjpeg --enable-libopenmpt --enable-libopus --enable-libpulse --enable-librubberband --enable-librsvg --enable-libshine --enable-libsnappy --enable-libsoxr --enable-libspeex --enable-libssh --enable-libtheora --enable-libtwolame --enable-libvorbis --enable-libvpx --enable-libwavpack --enable-libwebp --enable-libx265 --enable-libxml2 --enable-libxvid --enable-libzmq --enable-libzvbi --enable-omx --enable-openal --enable-opengl --enable-sdl2 --enable-libdc1394 --enable-libdrm --enable-libiec61883 --enable-chromaprint --enable-frei0r --enable-libopencv --enable-libx264 --enable-shared
  libavutil      55. 78.100 / 55. 78.100
  libavcodec     57.107.100 / 57.107.100
  libavformat    57. 83.100 / 57. 83.100
  libavdevice    57. 10.100 / 57. 10.100
  libavfilter     6.107.100 /  6.107.100
  libavresample   3.  7.  0 /  3.  7.  0
  libswscale      4.  8.100 /  4.  8.100
  libswresample   2.  9.100 /  2.  9.100
  libpostproc    54.  7.100 / 54.  7.100
[rawvideo @ 0x564d4926ba20] Estimating duration from bitrate, this may be inaccurate
Input #0, rawvideo, from '../../SVC-Encoder-20220109T061506Z-001/SVC-Encoder/Dataset/RollerCoaster/6f_2x2/tile_yuv/f0_t3_480x480.yuv':
  Duration: 00:00:10.00, start: 0.000000, bitrate: 82944 kb/s
    Stream #0:0: Video: rawvideo (I420 / 0x30323449), yuv420p, 480x480, 82944 kb/s, 30 tbr, 30 tbn, 30 tbc
Stream mapping:
  Stream #0:0 -> #0:0 (rawvideo (native) -> h264 (libx264))
Press [q] to stop, [?] for help
[libx264 @ 0x564d49278c60] using cpu capabilities: MMX2 SSE2Fast LZCNT SSSE3 SSE4.2 AVX
[libx264 @ 0x564d49278c60] profile High, level 3.0
Output #0, rawvideo, to 'RollerCoaster_f0_t3_480x480_x264_QP_28.h264':
  Metadata:
    encoder         : Lavf57.83.100
    Stream #0:0: Video: h264 (libx264), yuv420p, 480x480, q=-1--1, 30 fps, 30 tbn, 30 tbc
    Metadata:
      encoder         : Lavc57.107.100 libx264
    Side data:
      cpb: bitrate max/min/avg: 0/0/0 buffer size: 0 vbv_delay: -1
frame=   94 fps=0.0 q=34.0 PSNR=Y:nan U:nan V:nan *:nan size=     116kB time=00:00:01.70 bitrate= 557.2kbits/s speed=3.39x    frame=  147 fps=146 q=34.0 PSNR=Y:nan U:nan V:nan *:nan size=     229kB time=00:00:03.46 bitrate= 541.2kbits/s speed=3.44x    frame=  202 fps=133 q=34.0 PSNR=Y:nan U:nan V:nan *:nan size=     256kB time=00:00:05.30 bitrate= 395.7kbits/s speed= 3.5x    frame=  249 fps=123 q=34.0 PSNR=Y:nan U:nan V:nan *:nan size=     256kB time=00:00:06.86 bitrate= 305.4kbits/s speed=3.41x    frame=  300 fps=109 q=34.0 LPSNR=Y:inf U:inf V:inf *:inf size=     636kB time=00:00:09.93 bitrate= 524.8kbits/s speed= 3.6x    
video:636kB audio:0kB subtitle:0kB other streams:0kB global headers:0kB muxing overhead: 0.000000%
[libx264 @ 0x564d49278c60] frame I:2     Avg QP:27.87  size: 17163  PSNR Mean Y:39.72 U:42.99 V:46.13 Avg:40.78 Global:40.76
[libx264 @ 0x564d49278c60] frame P:76    Avg QP:29.16  size:  5001  PSNR Mean Y:38.06 U:42.82 V:46.02 Avg:39.31 Global:39.28
[libx264 @ 0x564d49278c60] frame B:222   Avg QP:33.47  size:  1069  PSNR Mean Y:37.37 U:42.74 V:45.99 Avg:38.69 Global:38.68
[libx264 @ 0x564d49278c60] consecutive B-frames:  1.0%  0.0%  3.0% 96.0%
[libx264 @ 0x564d49278c60] mb I  I16..4: 10.8% 53.7% 35.6%
[libx264 @ 0x564d49278c60] mb P  I16..4:  2.7%  6.9%  1.0%  P16..4: 33.4% 21.8%  9.5%  0.0%  0.0%    skip:24.7%
[libx264 @ 0x564d49278c60] mb B  I16..4:  0.2%  0.4%  0.0%  B16..8: 35.6%  8.5%  0.6%  direct: 0.5%  skip:54.1%  L0:38.8% L1:50.8% BI:10.4%
[libx264 @ 0x564d49278c60] 8x8 transform intra:62.9% inter:72.9%
[libx264 @ 0x564d49278c60] coded y,uvDC,uvAC intra: 48.4% 60.6% 20.8% inter: 10.2% 8.8% 0.1%
[libx264 @ 0x564d49278c60] i16 v,h,dc,p: 14% 44% 17% 26%
[libx264 @ 0x564d49278c60] i8 v,h,dc,ddl,ddr,vr,hd,vl,hu:  6% 30% 22%  1% 13% 11%  9%  1%  5%
[libx264 @ 0x564d49278c60] i4 v,h,dc,ddl,ddr,vr,hd,vl,hu: 12% 23% 12%  1% 22% 16%  8%  2%  3%
[libx264 @ 0x564d49278c60] i8c dc,h,v,p: 45% 33% 11% 11%
[libx264 @ 0x564d49278c60] Weighted P-Frames: Y:1.3% UV:0.0%
[libx264 @ 0x564d49278c60] ref P L0: 60.8% 16.8% 16.8%  5.5%  0.1%
[libx264 @ 0x564d49278c60] ref B L0: 91.9%  7.0%  1.1%
[libx264 @ 0x564d49278c60] ref B L1: 94.5%  5.5%
[libx264 @ 0x564d49278c60] PSNR Mean Y:37.561 U:42.758 V:46.001 Avg:38.861 Global:38.832 kb/s:521.27
